<svg width="18" height="18" viewBox="0 0 18 18" xmlns="http://www.w3.org/2000/svg">
  <path
    d="M5.25 14.4375C5.25 14.7482 5.50184 15 5.8125 15H10.5C11.9839 15 13.128 14.383 13.8899 13.4443C14.6405 12.5195 15 11.3099 15 10.125C15 8.94008 14.6405 7.73054 13.8899 6.80569C13.128 5.86699 11.9839 5.25 10.5 5.25H5.67049L7.52275 3.39775C7.74242 3.17808 7.74242 2.82192 7.52275 2.60225C7.30308 2.38258 6.94692 2.38258 6.72725 2.60225L3.91475 5.41475C3.69508 5.63442 3.69508 5.99058 3.91475 6.21025L6.72725 9.02275C6.94692 9.24242 7.30308 9.24242 7.52275 9.02275C7.74242 8.80308 7.74242 8.44692 7.52275 8.22725L5.67049 6.375H10.5C11.6411 6.375 12.4657 6.83613 13.0164 7.51463C13.5783 8.20696 13.875 9.15367 13.875 10.125C13.875 11.0963 13.5783 12.043 13.0164 12.7354C12.4657 13.4139 11.6411 13.875 10.5 13.875H5.8125C5.50184 13.875 5.25 14.1268 5.25 14.4375Z" />
</svg>