<svg width="18" height="18" viewBox="0 0 18 18" fill="none" xmlns="http://www.w3.org/2000/svg">
  <path
    d="M8.98963 1.35658C8.98963 1.02158 8.71805 0.75 8.38305 0.75C8.04804 0.75 7.77647 1.02158 7.77647 1.35658V2.36711C7.5281 2.4547 7.29494 2.59783 7.09629 2.79648L1.53299 8.35978C0.822336 9.07043 0.822338 10.2226 1.53299 10.9333L5.47874 14.879C6.18939 15.5897 7.34159 15.5897 8.05224 14.879L13.6155 9.31573C14.3262 8.60508 14.3262 7.45288 13.6155 6.74223L9.66979 2.79648C9.47114 2.59783 9.23799 2.45471 8.98963 2.36712V1.35658ZM7.77647 3.83197V4.99606C7.77647 5.33107 8.04804 5.60264 8.38305 5.60264C8.71805 5.60264 8.98963 5.33107 8.98963 4.99606V3.83199L12.7577 7.60006C12.9946 7.83695 12.9946 8.22101 12.7577 8.4579L11.9735 9.24213H2.36761C2.37508 9.23379 2.38282 9.22562 2.39082 9.21761L7.77647 3.83197ZM15.0726 10.538C14.8064 10.039 14.0912 10.039 13.8251 10.538L12.2009 13.5833C11.2959 15.2803 12.5256 17.3299 14.4488 17.3299C16.3721 17.3299 17.6018 15.2803 16.6968 13.5833L15.0726 10.538Z"
    stroke="transparent" fill="currentColor" />
</svg>