<svg width="18" height="18" viewBox="0 0 18 18" fill="none" xmlns="http://www.w3.org/2000/svg">
  <path
    d="M3.6001 3.3752C3.6001 3.0024 3.90231 2.7002 4.2751 2.7002H13.2751C13.6479 2.7002 13.9501 3.0024 13.9501 3.3752V4.7252C13.9501 5.09799 13.6479 5.4002 13.2751 5.4002C12.9023 5.4002 12.6001 5.09799 12.6001 4.7252V4.0502H9.4501V13.9502H10.5751C10.9479 13.9502 11.2501 14.2524 11.2501 14.6252C11.2501 14.998 10.9479 15.3002 10.5751 15.3002H6.9751C6.60231 15.3002 6.3001 14.998 6.3001 14.6252C6.3001 14.2524 6.60231 13.9502 6.9751 13.9502H8.1001V4.0502H4.9501V4.7252C4.9501 5.09799 4.64789 5.4002 4.2751 5.4002C3.90231 5.4002 3.6001 5.09799 3.6001 4.7252V3.3752Z"
    fill="#212121" />
</svg>