<svg width="18" height="18" viewBox="0 0 18 18" fill="none" xmlns="http://www.w3.org/2000/svg">
  <path
    d="M9 1.3125C10.2998 1.3125 11.3619 2.32984 11.4336 3.61168L11.4375 3.75H15.375C15.6857 3.75 15.9375 4.00184 15.9375 4.3125C15.9375 4.59727 15.7259 4.83262 15.4513 4.86987L15.375 4.875H14.778L13.8179 14.6394C13.7184 15.6512 12.8988 16.4325 11.897 16.4958L11.7653 16.5H6.2347C5.21801 16.5 4.36024 15.7609 4.19912 14.77L4.1821 14.6394L3.22125 4.875H2.625C2.34023 4.875 2.10488 4.66338 2.06763 4.38883L2.0625 4.3125C2.0625 4.02773 2.27412 3.79238 2.54867 3.75513L2.625 3.75H6.5625C6.5625 2.40381 7.65381 1.3125 9 1.3125ZM13.6478 4.875H4.3515L5.3017 14.5293C5.34576 14.9772 5.70025 15.3257 6.13938 15.3702L6.2347 15.375H11.7653C12.2154 15.375 12.5969 15.0563 12.6842 14.6237L12.6983 14.5293L13.6478 4.875ZM10.3125 6.9375C10.5973 6.9375 10.8326 7.14912 10.8699 7.42367L10.875 7.5V12.75C10.875 13.0607 10.6232 13.3125 10.3125 13.3125C10.0277 13.3125 9.79238 13.1009 9.75513 12.8263L9.75 12.75V7.5C9.75 7.18934 10.0018 6.9375 10.3125 6.9375ZM7.6875 6.9375C7.97227 6.9375 8.20762 7.14912 8.24487 7.42367L8.25 7.5V12.75C8.25 13.0607 7.99816 13.3125 7.6875 13.3125C7.40273 13.3125 7.16738 13.1009 7.13013 12.8263L7.125 12.75V7.5C7.125 7.18934 7.37684 6.9375 7.6875 6.9375ZM9 2.4375C8.31137 2.4375 7.74661 2.96783 7.69185 3.64235L7.6875 3.75H10.3125C10.3125 3.02513 9.72487 2.4375 9 2.4375Z"
    fill="black" />
</svg>