<svg width="18" height="18" viewBox="0 0 18 18" fill="none" xmlns="http://www.w3.org/2000/svg">
  <path
    d="M3.50735 3.64841L3.5727 3.5727C3.81234 3.33306 4.18734 3.31128 4.45159 3.50735L4.5273 3.5727L9 8.0451L13.4727 3.5727C13.7123 3.33306 14.0873 3.31128 14.3516 3.50735L14.4273 3.5727C14.6669 3.81234 14.6887 4.18734 14.4927 4.45159L14.4273 4.5273L9.9549 9L14.4273 13.4727C14.6669 13.7123 14.6887 14.0873 14.4927 14.3516L14.4273 14.4273C14.1877 14.6669 13.8127 14.6887 13.5484 14.4927L13.4727 14.4273L9 9.9549L4.5273 14.4273C4.28766 14.6669 3.91266 14.6887 3.64841 14.4927L3.5727 14.4273C3.33306 14.1877 3.31128 13.8127 3.50735 13.5484L3.5727 13.4727L8.0451 9L3.5727 4.5273C3.33306 4.28766 3.31128 3.91266 3.50735 3.64841L3.5727 3.5727L3.50735 3.64841Z"
    fill="#FF3B30" />
</svg>