<svg width="18" height="18" viewBox="0 0 18 18" fill="none" xmlns="http://www.w3.org/2000/svg">
  <path
    d="M9.10568 7.00613L9.10503 7.00714L5.52763 1.7463C5.35294 1.48941 5.00307 1.42277 4.74618 1.59745C4.48929 1.77214 4.42265 2.12201 4.59734 2.3789L8.44542 8.0378L6.64858 10.8454C6.23098 10.6249 5.75506 10.5001 5.25 10.5001C3.59315 10.5001 2.25 11.8432 2.25 13.5001C2.25 15.1569 3.59315 16.5001 5.25 16.5001C6.90685 16.5001 8.25 15.1569 8.25 13.5001C8.25 12.7567 7.9796 12.0764 7.53179 11.5523L9.13349 9.04967L10.682 11.3268C10.1078 11.8733 9.75 12.6449 9.75 13.5001C9.75 15.1569 11.0931 16.5001 12.75 16.5001C14.4069 16.5001 15.75 15.1569 15.75 13.5001C15.75 11.8432 14.4069 10.5001 12.75 10.5001C12.3532 10.5001 11.9744 10.5771 11.6278 10.717L9.79311 8.01902L9.79407 8.01751L9.10568 7.00613ZM3.375 13.5001C3.375 12.4646 4.21447 11.6251 5.25 11.6251C6.28553 11.6251 7.125 12.4646 7.125 13.5001C7.125 14.5356 6.28553 15.3751 5.25 15.3751C4.21447 15.3751 3.375 14.5356 3.375 13.5001ZM10.875 13.5001C10.875 12.4646 11.7145 11.6251 12.75 11.6251C13.7855 11.6251 14.625 12.4646 14.625 13.5001C14.625 14.5356 13.7855 15.3751 12.75 15.3751C11.7145 15.3751 10.875 14.5356 10.875 13.5001ZM10.4536 6.98705L13.4112 2.36579C13.5786 2.10413 13.5023 1.75625 13.2406 1.58879C12.9789 1.42133 12.6311 1.49769 12.4636 1.75935L9.76517 5.97567L10.4536 6.98705Z"
    fill="#212121" />
</svg>