<svg width="18" height="18" viewBox="0 0 18 18" fill="none" xmlns="http://www.w3.org/2000/svg">
  <g clip-path="url(#clip0_345_14630)">
    <path fill-rule="evenodd" clip-rule="evenodd"
      d="M12.9436 6.77391L6.21342 13.5041L3.07868 14.164L3.73855 11.0292L10.4687 4.29904L12.9436 6.77391ZM14.6406 6.84467L13.8275 7.6578L6.89861 14.5867C6.8568 14.6285 6.80374 14.6572 6.74588 14.6694L2.21088 15.624C1.8575 15.6984 1.54422 15.3851 1.61861 15.0318L2.57324 10.4968C2.58542 10.4389 2.61416 10.3858 2.65597 10.344L9.58484 3.41516L10.398 2.60202L10.8787 2.12132C12.0503 0.949748 13.9497 0.949748 15.1213 2.12132C16.2929 3.29289 16.2929 5.19239 15.1213 6.36396L14.6406 6.84467ZM11.2819 3.48591L11.7626 3.0052C12.446 2.32179 13.554 2.32179 14.2374 3.0052C14.9209 3.68862 14.9209 4.79666 14.2374 5.48008L13.7567 5.96078L11.2819 3.48591Z"
      fill="black" />
  </g>
  <defs>
    <clipPath id="clip0_345_14630">
      <rect width="18" height="18" fill="white" />
    </clipPath>
  </defs>
</svg>